{
  "accessors": [
    {
      "bufferView": 1,
      "componentType": 5126,
      "count": 221,
      "max": [
        -11.0,
        -0.0,
        -22.373699188232422
      ],
      "min": [
        -31.0,
        -20.0,
        -42.0
      ],
      "type": "VEC3"
    },
    {
      "bufferView": 1,
      "byteOffset": 2652,
      "componentType": 5126,
      "count": 221,
      "max": [
        0.998611569404602,
        1.0,
        0.9877187013626099
      ],
      "min": [
        -0.998611569404602,
        -1.0,
        -1.0
      ],
      "type": "VEC3"
    },
    {
      "bufferView": 0,
      "componentType": 5125,
      "count": 663,
      "type": "SCALAR"
    },
    {
      "bufferView": 1,
      "byteOffset": 5304,
      "componentType": 5126,
      "count": 260,
      "max": [
        -16.0,
        -20.0,
        -28.04800033569336
      ],
      "min": [
        -25.648000717163086,
        -21.0,
        -38.0
      ],
      "type": "VEC3"
    },
    {
      "bufferView": 1,
      "byteOffset": 8424,
      "componentType": 5126,
      "count": 260,
      "max": [
        0.9999977350234985,
        3.869665670208633e-05,
        1.0
      ],
      "min": [
        -0.9999451637268066,
        -1.0,
        -0.9998608231544495
      ],
      "type": "VEC3"
    },
    {
      "bufferView": 0,
      "byteOffset": 2652,
      "componentType": 5125,
      "count": 762,
      "type": "SCALAR"
    },
    {
      "bufferView": 1,
      "byteOffset": 11544,
      "componentType": 5126,
      "count": 106,
      "max": [
        -11.0,
        1.9170000553131104,
        -4.504000186920166
      ],
      "min": [
        -31.0,
        -24.0,
        -25.0
      ],
      "type": "VEC3"
    },
    {
      "bufferView": 1,
      "byteOffset": 12816,
      "componentType": 5126,
      "count": 106,
      "max": [
        0.8945307731628418,
        0.8702843189239502,
        0.9999834299087524
      ],
      "min": [
        -0.8945307731628418,
        -0.805329442024231,
        -0.9991910457611084
      ],
      "type": "VEC3"
    },
    {
      "bufferView": 0,
      "byteOffset": 5700,
      "componentType": 5125,
      "count": 303,
      "type": "SCALAR"
    }
  ],
  "asset": {
    "extras": {
      "author": "Po219 (https://sketchfab.com/Po219)",
      "license": "CC-BY-4.0 (http://creativecommons.org/licenses/by/4.0/)",
      "source": "https://sketchfab.com/3d-models/cylinder-smiley-face-6acff60f30f64551983eb230aa69006a",
      "title": "Cylinder Smiley face"
    },
    "generator": "Sketchfab-12.90.0",
    "version": "2.0"
  },
  "bufferViews": [
    {
      "buffer": 0,
      "byteLength": 6912,
      "name": "floatBufferViews",
      "target": 34963
    },
    {
      "buffer": 0,
      "byteLength": 14088,
      "byteOffset": 6912,
      "byteStride": 12,
      "name": "floatBufferViews",
      "target": 34962
    }
  ],
  "buffers": [
    {
      "byteLength": 21000,
      "uri": "scene.bin"
    }
  ],
  "materials": [
    {
      "doubleSided": true,
      "name": "color_16089887",
      "pbrMetallicRoughness": {
        "baseColorFactor": [
          0.960784,
          0.513726,
          0.121569,
          1.0
        ],
        "metallicFactor": 0.0
      }
    },
    {
      "doubleSided": true,
      "name": "color_2829873",
      "pbrMetallicRoughness": {
        "baseColorFactor": [
          0.168627,
          0.180392,
          0.192157,
          1.0
        ],
        "metallicFactor": 0.0
      }
    },
    {
      "doubleSided": true,
      "name": "color_8273816",
      "pbrMetallicRoughness": {
        "baseColorFactor": [
          0.494118,
          0.247059,
          0.596078,
          1.0
        ],
        "metallicFactor": 0.0
      }
    }
  ],
  "meshes": [
    {
      "name": "Object_0",
      "primitives": [
        {
          "attributes": {
            "NORMAL": 1,
            "POSITION": 0
          },
          "indices": 2,
          "material": 0,
          "mode": 4
        }
      ]
    },
    {
      "name": "Object_1",
      "primitives": [
        {
          "attributes": {
            "NORMAL": 4,
            "POSITION": 3
          },
          "indices": 5,
          "material": 1,
          "mode": 4
        }
      ]
    },
    {
      "name": "Object_2",
      "primitives": [
        {
          "attributes": {
            "NORMAL": 7,
            "POSITION": 6
          },
          "indices": 8,
          "material": 2,
          "mode": 4
        }
      ]
    }
  ],
  "nodes": [
    {
      "children": [
        1
      ],
      "matrix": [
        1.0,
        0.0,
        0.0,
        0.0,
        0.0,
        2.220446049250313e-16,
        -1.0,
        0.0,
        0.0,
        1.0,
        2.220446049250313e-16,
        0.0,
        0.0,
        0.0,
        0.0,
        1.0
      ],
      "name": "Sketchfab_model"
    },
    {
      "children": [
        2,
        3,
        4
      ],
      "name": "tinker.obj.cleaner.materialmerger.gles"
    },
    {
      "mesh": 0,
      "name": "Object_2"
    },
    {
      "mesh": 1,
      "name": "Object_3"
    },
    {
      "mesh": 2,
      "name": "Object_4"
    }
  ],
  "scene": 0,
  "scenes": [
    {
      "name": "Sketchfab_Scene",
      "nodes": [
        0
      ]
    }
  ]
}
